# xmcd
# 
# Track frame offsets:
#     150
#     17465
#     36560
#     59127
#     75322
#     93007
#     114717
#     128752
#     149795
#     165530
#     187992
# 
# Disc length: 2835
# 
# Revision: 5
# Processed by: cddbd v1.5.2PL0 Copyright (c) Steve Scherf et al.
# Submitted via: fre:ac v1.0.17
# 
DISCID=910b110b
DTITLE=Night Bird - Hommage
DYEAR=2004
DGENRE=Jazz
TTITLE0=Sitting Ashore
TTITLE1=Sweetheart
TTITLE2=Lullaby Of Love
TTITLE3=Nightbird
TTITLE4=I Still Haven't Found Waht I'm Looking For
TTITLE5=Your Song
TTITLE6=Inner Child
TTITLE7=Please Send Me Someone To Love
TTITLE8=Catblues
TTITLE9=Takes My Breath Away
TTITLE10=Stormy Weather
EXTD=Recorded, mixed and produced by Thomas Wolter
EXTT0=
EXTT1=
EXTT2=
EXTT3=
EXTT4=
EXTT5=
EXTT6=
EXTT7=
EXTT8=
EXTT9=
EXTT10=
PLAYORDER=
